<svg width="270" height="270" viewBox="0 0 270 270" fill="none" xmlns="http://www.w3.org/2000/svg">
<path d="M68.31 223.25C64.209 223.252 60.1529 222.396 56.4021 220.737C52.6513 219.079 49.2887 216.655 46.53 213.62C44.3016 211.169 42.3126 208.51 40.59 205.68C35.59 197.5 32.59 187.32 35.91 178.35C37.34 174.52 39.83 171.19 41.61 167.51C47.81 154.66 44.61 139.51 45.19 125.25C45.68 112 49.75 98.54 58.7 88.79C67.65 79.04 81.98 73.79 94.7 77.59C100.85 79.46 106.7 83.35 113.11 82.65C118.36 82.07 122.79 78.42 126.11 74.3C129.43 70.18 131.92 65.45 135.35 61.43C139.227 56.8939 144.172 53.3947 149.74 51.2484C155.308 49.1021 161.322 48.3762 167.241 49.1364C173.159 49.8965 178.795 52.1187 183.64 55.6024C188.485 59.086 192.385 63.7214 194.99 69.09C197.99 75.31 199.21 82.36 202.76 88.3C205.039 92.2349 208.671 95.2063 212.98 96.66C220.21 98.78 224.6 106.09 222.43 113.3C222.32 113.67 222.2 114.03 222.07 114.39C219.97 120.39 216.16 125.55 213.33 131.21C210.5 136.87 208.67 143.55 210.87 149.48C213.87 157.48 222.75 161.24 229.46 166.54C233.613 169.855 237.066 173.964 239.615 178.627C242.165 183.29 243.761 188.414 244.31 193.7V194.02C244.619 197.749 244.15 201.501 242.932 205.038C241.714 208.576 239.774 211.822 237.236 214.57C234.697 217.319 231.615 219.51 228.185 221.004C224.755 222.498 221.051 223.263 217.31 223.25H68.31Z" fill="#E7EFF8"/>
<path d="M259.5 55.58V214.42C259.5 216.762 258.57 219.008 256.914 220.664C255.258 222.32 253.012 223.25 250.67 223.25H162.53C160.189 223.247 157.945 222.316 156.289 220.661C154.634 219.005 153.703 216.761 153.7 214.42V55.58C153.7 54.4209 153.928 53.2732 154.372 52.2025C154.816 51.1317 155.467 50.159 156.287 49.3398C157.107 48.5207 158.08 47.8712 159.152 47.4285C160.223 46.9859 161.371 46.7587 162.53 46.76H250.67C251.829 46.7574 252.978 46.9837 254.05 47.4259C255.122 47.868 256.096 48.5175 256.916 49.3369C257.736 50.1563 258.387 51.1296 258.83 52.2009C259.274 53.2722 259.501 54.4206 259.5 55.58V55.58Z" fill="#202241"/>
<path d="M250.68 59.11H162.53C161.558 59.11 160.77 59.898 160.77 60.87V203.84C160.77 204.812 161.558 205.6 162.53 205.6H250.68C251.652 205.6 252.44 204.812 252.44 203.84V60.87C252.44 59.898 251.652 59.11 250.68 59.11Z" fill="#F68E29"/>
<path d="M207.908 220.015C210.994 219.286 212.904 216.195 212.176 213.11C211.448 210.024 208.357 208.113 205.271 208.842C202.186 209.57 200.275 212.661 201.003 215.747C201.731 218.832 204.823 220.743 207.908 220.015Z" fill="#4F5684"/>
<path d="M174.36 46.75V48.38C174.36 48.9158 174.466 49.4463 174.671 49.9413C174.876 50.4364 175.176 50.8861 175.555 51.265C175.934 51.6439 176.384 51.9444 176.879 52.1494C177.374 52.3545 177.904 52.46 178.44 52.46H234.76C235.296 52.46 235.826 52.3545 236.321 52.1494C236.816 51.9444 237.266 51.6439 237.645 51.265C238.024 50.8861 238.324 50.4364 238.529 49.9413C238.734 49.4463 238.84 48.9158 238.84 48.38V46.75H174.36Z" fill="#4F5684"/>
<path d="M15 103.75V124.58H35.84V103.75H15ZM30.8 119.53H20.06V108.8H30.8V119.53Z" fill="black"/>
<path d="M15 140.63V161.46H35.84V140.63H15ZM30.8 156.41H20.06V145.69H30.8V156.41Z" fill="black"/>
<path d="M51.9 103.75V124.58H72.73V103.75H51.9ZM67.68 119.53H57V108.8H67.68V119.53Z" fill="black"/>
<path d="M51.86 140.23H46.57V150.75H51.86V140.23Z" fill="black"/>
<path d="M56.95 150.94H51.66V161.46H56.95V150.94Z" fill="black"/>
<path d="M72.73 140.23H67.44V145.52H72.73V140.23Z" fill="black"/>
<path d="M62.25 145.46H57.03V150.75H62.25V145.46Z" fill="black"/>
<path d="M62.32 156.17H57.03V161.46H62.32V156.17Z" fill="black"/>
<path d="M72.73 156.17H67.44V161.46H72.73V156.17Z" fill="black"/>
<path d="M46.57 145.46H41.28V161.46H46.57V145.46Z" fill="black"/>
<path d="M46.57 103.75H41.28V109.04H46.57V103.75Z" fill="black"/>
<path d="M51.85 129.71H46.56V135H41.13V140.29H56.95V135H51.85V129.71Z" fill="black"/>
<path d="M62.24 129.71H56.95V135H62.24V129.71Z" fill="black"/>
<path d="M67.44 135H62.24V150.75H67.44V135Z" fill="black"/>
<path d="M72.73 129.71H67.44V135H72.73V129.71Z" fill="black"/>
<path d="M30.72 129.71H25.43V135H30.72V129.71Z" fill="black"/>
<path d="M20.31 129.71H15.02V135H20.31V129.71Z" fill="black"/>
<path d="M41.13 129.71H35.84V135H41.13V129.71Z" fill="black"/>
<path d="M46.57 114.16H41.28V129.71H46.57V114.16Z" fill="black"/>
<path d="M74.27 166.77H13.57C13.0355 166.77 12.5063 166.665 12.0125 166.46C11.5187 166.256 11.07 165.956 10.6921 165.578C10.3141 165.2 10.0143 164.751 9.80981 164.257C9.60527 163.764 9.5 163.234 9.5 162.7V102C9.50265 100.922 9.93262 99.8896 10.6956 99.1285C11.4586 98.3674 12.4923 97.9399 13.57 97.9399H74.27C75.3477 97.9399 76.3814 98.3674 77.1444 99.1285C77.9074 99.8896 78.3373 100.922 78.34 102V162.7C78.34 163.234 78.2347 163.764 78.0302 164.257C77.8257 164.751 77.5259 165.2 77.1479 165.578C76.77 165.956 76.3213 166.256 75.8275 166.46C75.3337 166.665 74.8045 166.77 74.27 166.77V166.77ZM13.57 99.6099C12.9369 99.6126 12.3306 99.8652 11.8829 100.313C11.4353 100.761 11.1826 101.367 11.18 102V162.7C11.18 163.334 11.4318 163.942 11.88 164.39C12.3282 164.838 12.9361 165.09 13.57 165.09H74.27C74.9031 165.087 75.5094 164.835 75.9571 164.387C76.4047 163.939 76.6574 163.333 76.66 162.7V102C76.6574 101.367 76.4047 100.761 75.9571 100.313C75.5094 99.8652 74.9031 99.6126 74.27 99.6099H13.57Z" fill="#231F20"/>
<path d="M138.44 123.84L137.21 125.35L113.68 153.94L112 155.98L110.94 153.42L93.32 111.25L92.27 108.73L95.33 109.27L128.12 114.94L130.01 115.28L130.94 116.23L137.14 122.52L138.44 123.84Z" fill="#E7AB22"/>
<path d="M138.44 123.84L137.21 125.35L117.09 128.55L113.68 153.94L112 155.98L110.94 153.42L114.35 127.93L93.32 111.25L92.27 108.73L95.33 109.27L115.81 125.5L128.12 114.94L130.01 115.28L130.94 116.23L120.51 125.17L137.14 122.52L138.44 123.84Z" fill="#FCBF19"/>
<path d="M116.67 117.89C115.601 118.853 114.798 120.076 114.34 121.44C114 119.71 112 117.89 112 117.89C114.09 117.01 114.34 114.11 114.34 114.11C114.34 114.11 114.59 117 116.67 117.89Z" fill="white"/>
<path d="M109.55 131C108.73 131.733 108.117 132.667 107.77 133.71C107.42 132.671 106.811 131.738 106 131C107.59 130.32 107.78 128.11 107.78 128.11C107.78 128.11 108 130.32 109.55 131Z" fill="white"/>
<path d="M125.43 135.64C124.61 136.373 123.997 137.307 123.65 138.35C123.297 137.31 122.684 136.377 121.87 135.64C123.46 134.96 123.65 132.75 123.65 132.75C123.65 132.75 123.84 135 125.43 135.64Z" fill="white"/>
<path d="M93.3 99.42C92.9541 99.4121 92.6191 99.2975 92.3407 99.092C92.0624 98.8865 91.8543 98.6 91.7449 98.2718C91.6355 97.9435 91.6301 97.5895 91.7294 97.2581C91.8288 96.9266 92.028 96.634 92.3 96.42C105 87.42 125.66 87.42 138.36 96.42C138.55 96.5433 138.713 96.7036 138.839 96.8914C138.966 97.0791 139.053 97.2905 139.095 97.5128C139.138 97.7351 139.135 97.9637 139.087 98.1849C139.039 98.4061 138.947 98.6153 138.816 98.8C138.686 98.9847 138.519 99.1411 138.326 99.2598C138.133 99.3785 137.919 99.457 137.695 99.4906C137.471 99.5242 137.243 99.5123 137.024 99.4555C136.805 99.3987 136.599 99.2982 136.42 99.16C124.79 90.93 105.87 90.93 94.24 99.16C93.959 99.3372 93.6321 99.4276 93.3 99.42V99.42Z" fill="#231F20"/>
<path d="M101.61 101.19C101.494 101.205 101.376 101.205 101.26 101.19L93 99.3799C92.7831 99.3349 92.5774 99.2472 92.3948 99.1219C92.2122 98.9965 92.0563 98.8362 91.9363 98.65C91.8162 98.4639 91.7344 98.2558 91.6955 98.0377C91.6567 97.8197 91.6616 97.5961 91.71 97.3799L93.47 89.0799C93.5615 88.6437 93.8226 88.2616 94.1958 88.0178C94.569 87.774 95.0237 87.6884 95.46 87.7799C95.8963 87.8714 96.2783 88.1325 96.5221 88.5057C96.7659 88.8789 96.8515 89.3337 96.76 89.7699L95.34 96.4399L102 97.8699C102.402 97.9591 102.757 98.1928 102.998 98.5268C103.24 98.8607 103.35 99.2715 103.308 99.6813C103.266 100.091 103.075 100.471 102.771 100.749C102.467 101.027 102.072 101.184 101.66 101.19H101.61Z" fill="#231F20"/>
<path d="M237.3 111.22V153.49C237.284 154.555 236.851 155.57 236.093 156.319C235.336 157.067 234.315 157.487 233.25 157.49H176.44C175.383 157.477 174.373 157.051 173.626 156.304C172.879 155.557 172.453 154.547 172.44 153.49V111.22C172.44 110.159 172.861 109.142 173.612 108.392C174.362 107.641 175.379 107.22 176.44 107.22H233.25C234.316 107.22 235.338 107.64 236.096 108.388C236.854 109.137 237.287 110.155 237.3 111.22V111.22Z" fill="#975642"/>
<path d="M240.81 128.7V136C240.81 136.254 240.76 136.506 240.662 136.741C240.565 136.976 240.421 137.189 240.241 137.368C240.061 137.548 239.847 137.69 239.612 137.786C239.376 137.882 239.124 137.931 238.87 137.93H228.4C228.146 137.931 227.895 137.882 227.66 137.786C227.425 137.689 227.212 137.547 227.032 137.368C226.853 137.188 226.711 136.975 226.614 136.74C226.518 136.505 226.469 136.254 226.47 136V128.7C226.469 128.446 226.518 128.194 226.614 127.958C226.71 127.723 226.852 127.509 227.032 127.329C227.211 127.149 227.424 127.005 227.659 126.908C227.894 126.81 228.146 126.76 228.4 126.76H238.87C239.385 126.76 239.878 126.964 240.242 127.328C240.606 127.692 240.81 128.185 240.81 128.7V128.7Z" fill="#6F3F31"/>
<path d="M181.71 115.41H177.56V117.33H181.71V115.41Z" fill="#C36F54"/>
<path d="M190.12 115.41H185.97V117.33H190.12V115.41Z" fill="#C36F54"/>
<path d="M198.52 115.41H194.37V117.33H198.52V115.41Z" fill="#C36F54"/>
<path d="M206.92 115.41H202.77V117.33H206.92V115.41Z" fill="#C36F54"/>
<path d="M215.33 115.41H211.18V117.33H215.33V115.41Z" fill="#C36F54"/>
<path d="M223.73 115.41H219.58V117.33H223.73V115.41Z" fill="#C36F54"/>
<path d="M232.13 115.41H227.98V117.33H232.13V115.41Z" fill="#C36F54"/>
<path d="M181.71 147.38H177.56V149.3H181.71V147.38Z" fill="#C36F54"/>
<path d="M190.12 147.38H185.97V149.3H190.12V147.38Z" fill="#C36F54"/>
<path d="M198.52 147.38H194.37V149.3H198.52V147.38Z" fill="#C36F54"/>
<path d="M206.92 147.38H202.77V149.3H206.92V147.38Z" fill="#C36F54"/>
<path d="M215.33 147.38H211.18V149.3H215.33V147.38Z" fill="#C36F54"/>
<path d="M223.73 147.38H219.58V149.3H223.73V147.38Z" fill="#C36F54"/>
<path d="M232.13 147.38H227.98V149.3H232.13V147.38Z" fill="#C36F54"/>
<path d="M233.64 132.35C233.64 132.831 233.497 133.3 233.23 133.7C232.963 134.1 232.584 134.411 232.14 134.595C231.696 134.779 231.207 134.827 230.736 134.733C230.265 134.64 229.832 134.408 229.492 134.068C229.152 133.728 228.92 133.295 228.827 132.824C228.733 132.353 228.781 131.864 228.965 131.42C229.149 130.976 229.46 130.597 229.86 130.33C230.26 130.063 230.729 129.92 231.21 129.92C231.854 129.92 232.473 130.176 232.928 130.632C233.384 131.087 233.64 131.706 233.64 132.35V132.35Z" fill="#C36F54"/>
</svg>
