<svg width="270" height="270" viewBox="0 0 270 270" fill="none" xmlns="http://www.w3.org/2000/svg">
<path d="M50.26 238.87C45.3752 238.874 40.5436 237.856 36.0761 235.88C31.6085 233.905 27.604 231.016 24.32 227.4C21.6567 224.485 19.2854 221.317 17.24 217.94C11.34 208.19 7.69 196.07 11.67 185.39C13.37 180.82 16.34 176.86 18.45 172.47C25.85 157.16 22.09 139.12 22.72 122.12C23.3 106.37 28.15 90.3099 38.82 78.6999C49.49 67.0899 66.55 60.78 81.64 65.36C88.96 67.58 95.95 72.21 103.56 71.36C109.82 70.67 115.1 66.36 119.03 61.41C122.96 56.46 126 50.89 130 46.11C134.617 40.7136 140.506 36.5515 147.133 33.9989C153.761 31.4463 160.92 30.5835 167.964 31.4884C175.008 32.3932 181.717 35.0372 187.484 39.182C193.251 43.3267 197.896 48.8418 201 55.23C204.6 62.64 206 71.03 210.26 78.11C212.97 82.66 217.51 86.63 222.44 88.11C231.05 90.63 236.28 99.34 233.69 107.93C233.56 108.37 233.42 108.81 233.27 109.24C230.77 116.34 226.27 122.53 222.85 129.24C219.43 135.95 217.38 143.93 220 151C223.53 160.55 234.16 165 242.15 171.32C247.095 175.27 251.205 180.165 254.24 185.719C257.275 191.273 259.176 197.375 259.83 203.67C259.83 203.8 259.83 203.93 259.83 204.05C260.203 208.488 259.649 212.956 258.203 217.168C256.758 221.381 254.452 225.247 251.433 228.522C248.413 231.796 244.746 234.407 240.664 236.188C236.582 237.97 232.174 238.883 227.72 238.87H50.26Z" fill="#E7EFF8"/>
<path d="M32.58 66.35V200.16H237.42V66.35C237.42 64.2282 236.577 62.1934 235.077 60.6931C233.577 59.1928 231.542 58.35 229.42 58.35H40.58C38.4583 58.35 36.4234 59.1928 34.9231 60.6931C33.4229 62.1934 32.58 64.2282 32.58 66.35Z" fill="#202241"/>
<path d="M229.42 66.36H40.58V192.16H229.42V66.36Z" fill="#F68E29"/>
<path d="M20 205.62V200.16H250V205.62C249.997 208.605 248.81 211.466 246.698 213.576C244.587 215.685 241.725 216.87 238.74 216.87H31.26C28.2754 216.87 25.4129 215.685 23.3015 213.576C21.1901 211.466 20.0027 208.605 20 205.62V205.62Z" fill="#3C416D"/>
<path d="M214.13 88.69V169.82C214.13 171.016 213.655 172.163 212.809 173.009C211.963 173.855 210.816 174.33 209.62 174.33H164.62C163.424 174.33 162.277 173.855 161.431 173.009C160.585 172.163 160.11 171.016 160.11 169.82V88.69C160.11 88.0982 160.227 87.5122 160.453 86.9656C160.68 86.4189 161.013 85.9224 161.432 85.5044C161.85 85.0864 162.348 84.7552 162.895 84.5296C163.442 84.3041 164.028 84.1886 164.62 84.19H209.62C210.212 84.1886 210.798 84.3041 211.345 84.5296C211.892 84.7552 212.39 85.0864 212.808 85.5044C213.227 85.9224 213.56 86.4189 213.786 86.9656C214.013 87.5122 214.13 88.0982 214.13 88.69V88.69Z" fill="#202241"/>
<path d="M209.62 90.49H164.6C164.103 90.49 163.7 90.8929 163.7 91.39V164.41C163.7 164.907 164.103 165.31 164.6 165.31H209.62C210.117 165.31 210.52 164.907 210.52 164.41V91.39C210.52 90.8929 210.117 90.49 209.62 90.49Z" fill="white"/>
<path d="M55.88 89.23V101.14H140V89.23C140 88.4343 139.684 87.6713 139.121 87.1087C138.559 86.546 137.796 86.23 137 86.23H58.88C58.0844 86.23 57.3213 86.546 56.7587 87.1087C56.1961 87.6713 55.88 88.4343 55.88 89.23V89.23Z" fill="#202241"/>
<path d="M55.88 169.28V101.14H140V169.28C140 170.076 139.684 170.839 139.121 171.401C138.559 171.964 137.796 172.28 137 172.28H58.88C58.0844 172.28 57.3213 171.964 56.7587 171.401C56.1961 170.839 55.88 170.076 55.88 169.28V169.28Z" fill="white"/>
<path d="M97.92 159.21C110.346 159.21 120.42 149.136 120.42 136.71C120.42 124.284 110.346 114.21 97.92 114.21C85.4936 114.21 75.42 124.284 75.42 136.71C75.42 149.136 85.4936 159.21 97.92 159.21Z" fill="#FDDF08"/>
<path d="M97.92 155.06C108.054 155.06 116.27 146.844 116.27 136.71C116.27 126.576 108.054 118.36 97.92 118.36C87.7856 118.36 79.57 126.576 79.57 136.71C79.57 146.844 87.7856 155.06 97.92 155.06Z" fill="#E7AB22"/>
<path d="M107.85 135.81L96.47 149.65L87.98 129.31L104.22 132.13L107.85 135.81Z" fill="#FDDF08"/>
<path d="M96.44 149.86L98.13 137.31L108.07 135.74" stroke="#FCBF19" stroke-width="1.5" stroke-linecap="round" stroke-linejoin="round"/>
<path d="M87.77 129.09L98.13 137.31" stroke="#FCBF19" stroke-width="1.5" stroke-linecap="round" stroke-linejoin="round"/>
<path d="M104.35 131.97L98.13 137.31" stroke="#FCBF19" stroke-width="1.5" stroke-linecap="round" stroke-linejoin="round"/>
<path d="M97.92 117.31C98.4944 117.31 98.96 116.844 98.96 116.27C98.96 115.696 98.4944 115.23 97.92 115.23C97.3456 115.23 96.88 115.696 96.88 116.27C96.88 116.844 97.3456 117.31 97.92 117.31Z" fill="#FCBF19"/>
<path d="M97.92 158.19C98.4944 158.19 98.96 157.724 98.96 157.15C98.96 156.576 98.4944 156.11 97.92 156.11C97.3456 156.11 96.88 156.576 96.88 157.15C96.88 157.724 97.3456 158.19 97.92 158.19Z" fill="#FCBF19"/>
<path d="M90.1 118.86C90.6744 118.86 91.14 118.394 91.14 117.82C91.14 117.246 90.6744 116.78 90.1 116.78C89.5256 116.78 89.06 117.246 89.06 117.82C89.06 118.394 89.5256 118.86 90.1 118.86Z" fill="#FCBF19"/>
<path d="M105.74 156.64C106.314 156.64 106.78 156.174 106.78 155.6C106.78 155.026 106.314 154.56 105.74 154.56C105.166 154.56 104.7 155.026 104.7 155.6C104.7 156.174 105.166 156.64 105.74 156.64Z" fill="#FCBF19"/>
<path d="M83.46 123.29C84.0344 123.29 84.5 122.824 84.5 122.25C84.5 121.676 84.0344 121.21 83.46 121.21C82.8856 121.21 82.42 121.676 82.42 122.25C82.42 122.824 82.8856 123.29 83.46 123.29Z" fill="#FCBF19"/>
<path d="M112.37 152.2C112.944 152.2 113.41 151.734 113.41 151.16C113.41 150.586 112.944 150.12 112.37 150.12C111.796 150.12 111.33 150.586 111.33 151.16C111.33 151.734 111.796 152.2 112.37 152.2Z" fill="#FCBF19"/>
<path d="M79.03 129.93C79.6044 129.93 80.07 129.464 80.07 128.89C80.07 128.316 79.6044 127.85 79.03 127.85C78.4556 127.85 77.99 128.316 77.99 128.89C77.99 129.464 78.4556 129.93 79.03 129.93Z" fill="#FCBF19"/>
<path d="M116.81 145.57C117.384 145.57 117.85 145.104 117.85 144.53C117.85 143.956 117.384 143.49 116.81 143.49C116.236 143.49 115.77 143.956 115.77 144.53C115.77 145.104 116.236 145.57 116.81 145.57Z" fill="#FCBF19"/>
<path d="M77.48 137.75C78.0544 137.75 78.52 137.284 78.52 136.71C78.52 136.136 78.0544 135.67 77.48 135.67C76.9056 135.67 76.44 136.136 76.44 136.71C76.44 137.284 76.9056 137.75 77.48 137.75Z" fill="#FCBF19"/>
<path d="M118.36 137.75C118.934 137.75 119.4 137.284 119.4 136.71C119.4 136.136 118.934 135.67 118.36 135.67C117.786 135.67 117.32 136.136 117.32 136.71C117.32 137.284 117.786 137.75 118.36 137.75Z" fill="#FCBF19"/>
<path d="M79.03 145.57C79.6044 145.57 80.07 145.104 80.07 144.53C80.07 143.956 79.6044 143.49 79.03 143.49C78.4556 143.49 77.99 143.956 77.99 144.53C77.99 145.104 78.4556 145.57 79.03 145.57Z" fill="#FCBF19"/>
<path d="M116.81 129.93C117.384 129.93 117.85 129.464 117.85 128.89C117.85 128.316 117.384 127.85 116.81 127.85C116.236 127.85 115.77 128.316 115.77 128.89C115.77 129.464 116.236 129.93 116.81 129.93Z" fill="#FCBF19"/>
<path d="M83.46 152.2C84.0344 152.2 84.5 151.734 84.5 151.16C84.5 150.586 84.0344 150.12 83.46 150.12C82.8856 150.12 82.42 150.586 82.42 151.16C82.42 151.734 82.8856 152.2 83.46 152.2Z" fill="#FCBF19"/>
<path d="M112.37 123.29C112.944 123.29 113.41 122.824 113.41 122.25C113.41 121.676 112.944 121.21 112.37 121.21C111.796 121.21 111.33 121.676 111.33 122.25C111.33 122.824 111.796 123.29 112.37 123.29Z" fill="#FCBF19"/>
<path d="M90.1 156.64C90.6744 156.64 91.14 156.174 91.14 155.6C91.14 155.026 90.6744 154.56 90.1 154.56C89.5256 154.56 89.06 155.026 89.06 155.6C89.06 156.174 89.5256 156.64 90.1 156.64Z" fill="#FCBF19"/>
<path d="M105.74 118.86C106.314 118.86 106.78 118.394 106.78 117.82C106.78 117.246 106.314 116.78 105.74 116.78C105.166 116.78 104.7 117.246 104.7 117.82C104.7 118.394 105.166 118.86 105.74 118.86Z" fill="#FCBF19"/>
<path d="M98.58 131C98.0751 131.452 97.6961 132.028 97.48 132.67C97.2606 132.029 96.8821 131.455 96.38 131C97.38 130.58 97.48 129.21 97.48 129.21C97.48 129.21 97.6 130.58 98.58 131Z" fill="white"/>
<path d="M93.69 140.64C93.1851 141.092 92.8061 141.668 92.59 142.31C92.3706 141.669 91.9921 141.095 91.49 140.64C92.49 140.22 92.59 138.85 92.59 138.85C92.59 138.85 92.71 140.22 93.69 140.64Z" fill="white"/>
<path d="M98.58 148.45C98.073 148.904 97.6937 149.484 97.48 150.13C97.2622 149.486 96.8836 148.907 96.38 148.45C97.38 148.03 97.48 146.66 97.48 146.66C97.48 146.66 97.6 148 98.58 148.45Z" fill="white"/>
<path d="M157.48 136.71L147.24 126.47V130.57H133.82V142.85H147.24V146.95L157.48 136.71Z" fill="#202241"/>
<path d="M63.62 91.1801C63.1255 91.1801 62.6422 91.3267 62.2311 91.6014C61.8199 91.8761 61.4995 92.2665 61.3103 92.7233C61.1211 93.1802 61.0716 93.6828 61.168 94.1678C61.2645 94.6527 61.5026 95.0982 61.8522 95.4478C62.2019 95.7975 62.6473 96.0356 63.1323 96.132C63.6172 96.2285 64.1199 96.179 64.5767 95.9898C65.0335 95.8005 65.424 95.4801 65.6987 95.069C65.9734 94.6579 66.12 94.1745 66.12 93.6801C66.12 93.017 65.8566 92.3811 65.3878 91.9123C64.9189 91.4434 64.283 91.1801 63.62 91.1801V91.1801Z" fill="white"/>
<path d="M71.42 91.1801C70.9255 91.1801 70.4422 91.3267 70.0311 91.6014C69.6199 91.8761 69.2995 92.2665 69.1103 92.7233C68.9211 93.1802 68.8716 93.6828 68.968 94.1678C69.0645 94.6527 69.3026 95.0982 69.6522 95.4478C70.0019 95.7975 70.4473 96.0356 70.9323 96.132C71.4172 96.2285 71.9199 96.179 72.3767 95.9898C72.8335 95.8005 73.224 95.4801 73.4987 95.069C73.7734 94.6579 73.92 94.1745 73.92 93.6801C73.92 93.017 73.6566 92.3811 73.1878 91.9123C72.7189 91.4434 72.083 91.1801 71.42 91.1801V91.1801Z" fill="white"/>
<path d="M79.21 91.1801C78.7155 91.1801 78.2322 91.3267 77.8211 91.6014C77.41 91.8761 77.0895 92.2665 76.9003 92.7233C76.7111 93.1802 76.6616 93.6828 76.758 94.1678C76.8545 94.6527 77.0926 95.0982 77.4422 95.4478C77.7919 95.7975 78.2373 96.0356 78.7223 96.132C79.2072 96.2285 79.7099 96.179 80.1667 95.9898C80.6235 95.8005 81.014 95.4801 81.2887 95.069C81.5634 94.6579 81.71 94.1745 81.71 93.6801C81.71 93.017 81.4466 92.3811 80.9778 91.9123C80.5089 91.4434 79.873 91.1801 79.21 91.1801V91.1801Z" fill="white"/>
<path d="M129.61 91.4301H98.81C98.2133 91.4301 97.641 91.6671 97.219 92.0891C96.7971 92.511 96.56 93.0833 96.56 93.6801C96.56 94.2768 96.7971 94.8491 97.219 95.271C97.641 95.693 98.2133 95.9301 98.81 95.9301H129.61C130.207 95.9301 130.779 95.693 131.201 95.271C131.623 94.8491 131.86 94.2768 131.86 93.6801C131.86 93.0833 131.623 92.511 131.201 92.0891C130.779 91.6671 130.207 91.4301 129.61 91.4301Z" fill="white"/>
<path d="M187.794 172.66C189.407 172.279 190.406 170.664 190.025 169.051C189.644 167.438 188.029 166.44 186.416 166.82C184.804 167.201 183.805 168.817 184.185 170.429C184.566 172.042 186.182 173.041 187.794 172.66Z" fill="#4F5684"/>
<path d="M170.17 84.4399V84.7899C170.17 85.4265 170.423 86.0369 170.873 86.487C171.323 86.9371 171.933 87.1899 172.57 87.1899H201.65C202.287 87.1899 202.897 86.9371 203.347 86.487C203.797 86.0369 204.05 85.4265 204.05 84.7899V84.4399C204.05 84.3736 204.024 84.31 203.977 84.2632C203.93 84.2163 203.866 84.1899 203.8 84.1899H170.42C170.354 84.1899 170.29 84.2163 170.243 84.2632C170.196 84.31 170.17 84.3736 170.17 84.4399Z" fill="#4F5684"/>
<path d="M178.5 104.26V110.46H184.7V104.26H178.5ZM183.2 108.96H180V105.76H183.2V108.96Z" fill="black"/>
<path d="M178.5 115.24V121.44H184.7V115.24H178.5ZM183.2 119.94H180V116.75H183.2V119.94Z" fill="black"/>
<path d="M189.49 104.26V110.46H195.69V104.26H189.49ZM194.18 108.96H191V105.76H194.19L194.18 108.96Z" fill="black"/>
<path d="M189.48 115.12H187.9V118.25H189.48V115.12Z" fill="black"/>
<path d="M190.99 118.31H189.41V121.44H190.99V118.31Z" fill="black"/>
<path d="M195.69 115.12H194.11V116.7H195.69V115.12Z" fill="black"/>
<path d="M192.56 116.68H191.01V118.26H192.56V116.68Z" fill="black"/>
<path d="M192.59 119.87H191.01V121.45H192.59V119.87Z" fill="black"/>
<path d="M195.69 119.87H194.11V121.45H195.69V119.87Z" fill="black"/>
<path d="M187.9 116.68H186.32V121.44H187.9V116.68Z" fill="black"/>
<path d="M187.9 104.26H186.32V105.84H187.9V104.26Z" fill="black"/>
<path d="M189.47 111.99H187.9V113.56H186.28V115.14H190.99V113.56H189.47V111.99Z" fill="black"/>
<path d="M192.57 111.99H190.99V113.57H192.57V111.99Z" fill="black"/>
<path d="M194.12 113.56H192.57V118.25H194.12V113.56Z" fill="black"/>
<path d="M195.69 111.99H194.11V113.57H195.69V111.99Z" fill="black"/>
<path d="M183.18 111.99H181.6V113.57H183.18V111.99Z" fill="black"/>
<path d="M180.08 111.99H178.5V113.57H180.08V111.99Z" fill="black"/>
<path d="M186.28 111.99H184.7V113.57H186.28V111.99Z" fill="black"/>
<path d="M187.9 107.36H186.32V111.99H187.9V107.36Z" fill="black"/>
<path d="M196.15 102.78H178.07C177.54 102.78 177.11 103.21 177.11 103.74V121.82C177.11 122.35 177.54 122.78 178.07 122.78H196.15C196.68 122.78 197.11 122.35 197.11 121.82V103.74C197.11 103.21 196.68 102.78 196.15 102.78Z" stroke="#231F20" stroke-miterlimit="10"/>
<path d="M203.26 128.65V150.9C203.26 151.465 203.036 152.007 202.636 152.406C202.237 152.806 201.695 153.03 201.13 153.03H171.23C170.667 153.027 170.128 152.802 169.73 152.403C169.333 152.003 169.11 151.463 169.11 150.9V128.65C169.11 128.087 169.333 127.547 169.73 127.147C170.128 126.748 170.667 126.523 171.23 126.52H201.13C201.695 126.52 202.237 126.744 202.636 127.144C203.036 127.543 203.26 128.085 203.26 128.65V128.65Z" fill="#975642"/>
<path d="M205.11 137.85V141.7C205.11 141.965 205.005 142.22 204.817 142.407C204.63 142.595 204.375 142.7 204.11 142.7H198.6C198.335 142.7 198.08 142.595 197.893 142.407C197.705 142.22 197.6 141.965 197.6 141.7V137.85C197.6 137.585 197.705 137.33 197.893 137.143C198.08 136.955 198.335 136.85 198.6 136.85H204.11C204.375 136.85 204.63 136.955 204.817 137.143C205.005 137.33 205.11 137.585 205.11 137.85Z" fill="#6F3F31"/>
<path d="M174.01 130.86H171.83V131.87H174.01V130.86Z" fill="#C36F54"/>
<path d="M178.43 130.86H176.25V131.87H178.43V130.86Z" fill="#C36F54"/>
<path d="M182.85 130.86H180.67V131.87H182.85V130.86Z" fill="#C36F54"/>
<path d="M187.27 130.86H185.09V131.87H187.27V130.86Z" fill="#C36F54"/>
<path d="M191.7 130.86H189.52V131.87H191.7V130.86Z" fill="#C36F54"/>
<path d="M196.12 130.86H193.94V131.87H196.12V130.86Z" fill="#C36F54"/>
<path d="M200.54 130.86H198.36V131.87H200.54V130.86Z" fill="#C36F54"/>
<path d="M174.01 147.68H171.83V148.69H174.01V147.68Z" fill="#C36F54"/>
<path d="M178.43 147.68H176.25V148.69H178.43V147.68Z" fill="#C36F54"/>
<path d="M182.85 147.68H180.67V148.69H182.85V147.68Z" fill="#C36F54"/>
<path d="M187.27 147.68H185.09V148.69H187.27V147.68Z" fill="#C36F54"/>
<path d="M191.7 147.68H189.52V148.69H191.7V147.68Z" fill="#C36F54"/>
<path d="M196.12 147.68H193.94V148.69H196.12V147.68Z" fill="#C36F54"/>
<path d="M200.54 147.68H198.36V148.69H200.54V147.68Z" fill="#C36F54"/>
<path d="M201.34 139.77C201.342 140.024 201.269 140.272 201.129 140.484C200.99 140.696 200.791 140.861 200.557 140.96C200.323 141.058 200.065 141.085 199.816 141.037C199.568 140.988 199.339 140.867 199.158 140.689C198.978 140.51 198.856 140.282 198.805 140.033C198.755 139.785 198.78 139.527 198.877 139.292C198.973 139.058 199.137 138.858 199.348 138.716C199.559 138.575 199.806 138.5 200.06 138.5C200.398 138.5 200.722 138.633 200.962 138.871C201.201 139.109 201.337 139.432 201.34 139.77V139.77Z" fill="#C36F54"/>
</svg>
