<svg width="270" height="270" viewBox="0 0 270 270" fill="none" xmlns="http://www.w3.org/2000/svg">
<path d="M50.26 244.18C45.376 244.185 40.5448 243.169 36.0773 241.195C31.6098 239.221 27.6049 236.334 24.32 232.72C21.6567 229.805 19.2854 226.637 17.24 223.26C11.34 213.51 7.69001 201.38 11.67 190.7C13.37 186.14 16.34 182.17 18.45 177.79C25.85 162.47 22.09 144.43 22.72 127.44C23.3 111.68 28.15 95.62 38.82 84.01C49.49 72.4 66.55 66.1 81.64 70.67C88.96 72.89 95.95 77.53 103.56 76.67C109.82 75.99 115.1 71.67 119.03 66.73C122.96 61.79 126 56.21 130 51.42C134.619 46.026 140.507 41.866 147.134 39.3149C153.762 36.7638 160.919 35.9018 167.963 36.8066C175.006 37.7113 181.714 40.3543 187.481 44.4975C193.249 48.6407 197.894 54.1538 201 60.54C204.6 67.95 206 76.35 210.26 83.43C212.97 87.98 217.51 91.94 222.44 93.43C231.05 95.95 236.28 104.66 233.69 113.25C233.56 113.69 233.42 114.12 233.27 114.55C230.77 121.66 226.27 127.84 222.85 134.55C219.43 141.26 217.3 149.26 219.92 156.32C223.45 165.87 234.08 170.32 242.07 176.64C247.031 180.584 251.156 185.477 254.206 191.033C257.255 196.589 259.167 202.697 259.83 209C259.83 209.13 259.83 209.25 259.83 209.38C260.203 213.818 259.649 218.285 258.203 222.497C256.758 226.709 254.452 230.575 251.432 233.848C248.413 237.122 244.745 239.732 240.663 241.512C236.581 243.292 232.173 244.204 227.72 244.19L50.26 244.18Z" fill="#E7EFF8"/>
<path d="M161.95 186.96H138.74V244.18H161.95V186.96Z" fill="#203E77"/>
<path d="M132.78 76.02L112.92 78.16L101.35 112.91L109.75 126.04H160.25L165.31 99.16L157.01 78.16L132.78 76.02Z" fill="#D6D5D3"/>
<path d="M135 78.16L142.77 84.38L146.95 77.09L145.59 72.97L135 78.16Z" fill="white"/>
<path d="M135 78.16L127.23 84.38L123.05 77.09L124.41 72.97L135 78.16Z" fill="white"/>
<path d="M142.15 126.04L136.36 88.16L139.7 81.92L135 78.16L130.3 81.92L133.64 88.16L127.85 126.04H142.15Z" fill="#F4832C"/>
<path d="M174.62 87.53C174.62 87.53 180.21 114.71 179.51 126.04H160.25L145.59 72.93L151.07 73.76L172 67C173.33 64.33 178.37 60.63 178.37 60.63C175.66 60.3 166.54 60.06 161.84 59.96L158.97 59.89L156.66 60.72L156.03 60.94C155.22 61.1866 154.509 61.6838 154 62.36L152.58 64.36C151.864 65.3766 150.794 66.0897 149.58 66.36L143.39 67.79L142.6 61.79L150 48.92C151.447 48.7848 152.903 48.7848 154.35 48.92C155.395 48.9372 156.408 49.2875 157.24 49.92V46.39C157.24 46.39 198.5 46.39 200.93 56.67C200.94 56.67 202 72.89 174.62 87.53Z" fill="#F79B74"/>
<path d="M163.43 57C163.031 58.0556 162.479 59.0463 161.79 59.94L158.92 59.87L156.61 60.7C155.266 56.9351 154.485 52.9928 154.29 49L154.36 48.93C155.405 48.9472 156.418 49.2975 157.25 49.93V47.88L161.59 48.37C161.59 48.37 163.2 56.59 163.43 57Z" fill="white"/>
<path d="M141.2 57.12H128.8L124.41 72.93L134.71 80.66L145.59 72.93L141.2 57.12Z" fill="#F79B74"/>
<path d="M119.4 49.84C119.4 49.84 120.68 61.31 125.84 68.37C126.798 69.6942 128.049 70.7791 129.495 71.5401C130.942 72.3012 132.544 72.7178 134.178 72.7575C135.812 72.7972 137.433 72.4589 138.915 71.7689C140.397 71.079 141.699 70.0561 142.72 68.78C148.39 61.52 150.01 48.92 150.01 48.92V41.92L147.85 34.64C147.85 34.64 141.98 31.12 141.15 31.12C140.32 31.12 125.35 34.12 125.27 34.52C125.19 34.92 119.4 44.15 119.4 44.15V49.84Z" fill="#F79B74"/>
<path d="M150 48.92C148.33 47.87 148.16 44.6 148.21 42.73C148.266 41.4393 148.076 40.1497 147.65 38.93C146.18 34.93 143.42 34.42 141.01 34.93C138.872 35.3748 136.95 36.5353 135.56 38.22C131.97 42.42 123.76 43.83 123.76 43.83C120.94 42.56 119.39 49.89 119.39 49.89C112.53 23.16 136.52 27.28 136.52 27.28C139.303 27.1641 142.06 26.7039 144.73 25.91C144.862 25.8677 145.001 25.8533 145.139 25.8677C145.277 25.8821 145.41 25.925 145.53 25.9936C145.651 26.0623 145.756 26.1552 145.838 26.2664C145.921 26.3777 145.979 26.5049 146.01 26.64C146.315 27.5504 146.703 28.4308 147.17 29.27C147.768 30.3332 148.538 31.2896 149.45 32.1C156.07 38.13 150 48.92 150 48.92Z" fill="#823A34"/>
<path d="M200.94 56.67C198.51 46.39 157.25 46.39 157.25 46.39V50L158.92 59.83C158.92 59.83 174.62 60.13 178.32 60.57C178.32 60.57 173.32 64.27 171.95 66.94L151.07 73.75L145.59 72.92L160.25 126H179.51C180.21 114.67 174.62 87.49 174.62 87.49C202 72.89 200.94 56.67 200.94 56.67Z" fill="#262626"/>
<path d="M95.38 87.53C95.38 87.53 89.79 114.71 90.49 126H109.75L124.41 72.89L118.93 73.72L98.05 67C96.72 64.33 91.68 60.63 91.68 60.63C94.39 60.3 103.51 60.06 108.21 59.96L111.08 59.89L113.39 60.72L114.02 60.94C114.812 61.1959 115.504 61.6923 116 62.36L117.42 64.36C118.136 65.3766 119.206 66.0897 120.42 66.36L126.61 67.79L127.4 61.79L120 48.92C118.553 48.7848 117.097 48.7848 115.65 48.92C114.605 48.9372 113.592 49.2875 112.76 49.92V46.39C112.76 46.39 71.5 46.39 69.07 56.67C69.06 56.67 68 72.89 95.38 87.53Z" fill="#F79B74"/>
<path d="M106.57 57C106.969 58.0556 107.521 59.0463 108.21 59.94L111.08 59.87L113.39 60.7C114.734 56.9351 115.515 52.9928 115.71 49L115.64 48.93C114.595 48.9472 113.582 49.2975 112.75 49.93V47.88L108.41 48.37C108.41 48.37 106.8 56.59 106.57 57Z" fill="white"/>
<path d="M69.06 56.67C71.49 46.39 112.75 46.39 112.75 46.39V50L111.08 59.83C111.08 59.83 95.38 60.13 91.68 60.57C91.68 60.57 96.68 64.27 98.05 66.94L118.93 73.75L124.41 72.92L109.75 126H90.49C89.79 114.67 95.38 87.49 95.38 87.49C68 72.89 69.06 56.67 69.06 56.67Z" fill="#262626"/>
<path d="M148.12 56.25C147.391 58.6498 146.478 60.99 145.39 63.25C144.375 65.4814 143.027 67.5452 141.39 69.37C140.515 70.1916 139.498 70.8487 138.39 71.31C137.296 71.772 136.127 72.0296 134.94 72.07C133.752 72.141 132.562 71.9883 131.43 71.62C130.291 71.2748 129.223 70.726 128.28 70C127.326 69.2648 126.504 68.372 125.85 67.36C125.49 66.87 125.18 66.36 124.85 65.8C124.52 65.24 124.25 64.72 123.95 64.17C122.826 61.9249 121.909 59.5818 121.21 57.17C120.452 54.7634 119.844 52.312 119.39 49.83C119.756 54.921 120.977 59.914 123 64.6C123.521 65.7827 124.14 66.92 124.85 68C125.541 69.1459 126.428 70.1614 127.47 71C128.52 71.8361 129.717 72.4671 131 72.86C132.924 73.491 134.984 73.5831 136.956 73.1266C138.929 72.67 140.739 71.6821 142.19 70.27C143.086 69.3094 143.875 68.253 144.54 67.12C144.87 66.56 145.2 66.01 145.48 65.43C145.76 64.85 146.05 64.27 146.29 63.68C148.283 58.9817 149.535 54.0024 150 48.92C149.511 51.3967 148.884 53.8439 148.12 56.25Z" fill="#E78663"/>
<path d="M80.43 101.83V170.14H189.57V101.83C189.571 101.414 189.491 101.002 189.332 100.618C189.174 100.233 188.942 99.8836 188.648 99.5891C188.354 99.2946 188.006 99.061 187.622 98.9015C187.238 98.7421 186.826 98.66 186.41 98.66H83.59C83.1742 98.66 82.7625 98.7421 82.3784 98.9015C81.9944 99.061 81.6456 99.2946 81.352 99.5891C81.0584 99.8836 80.8259 100.233 80.6677 100.618C80.5095 101.002 80.4287 101.414 80.43 101.83V101.83Z" fill="#CFCFCC"/>
<path d="M74.06 175.72V170.14H195.94V175.72C195.94 176.301 195.825 176.877 195.603 177.414C195.38 177.951 195.053 178.438 194.642 178.849C194.23 179.26 193.742 179.585 193.205 179.806C192.667 180.028 192.091 180.141 191.51 180.14H78.51C77.927 180.144 77.3491 180.033 76.8093 179.812C76.2696 179.592 75.7788 179.267 75.3652 178.856C74.9516 178.445 74.6233 177.957 74.3993 177.418C74.1753 176.88 74.06 176.303 74.06 175.72V175.72Z" fill="#212A38"/>
<path d="M135 143.37C142.141 143.37 147.93 139.354 147.93 134.4C147.93 129.446 142.141 125.43 135 125.43C127.859 125.43 122.07 129.446 122.07 134.4C122.07 139.354 127.859 143.37 135 143.37Z" fill="#AFAEAE"/>
<path d="M213.08 180.14H56.92V186.96H213.08V180.14Z" fill="#ACACAC"/>
<path d="M69.06 186.96H63.78V244.18H69.06V186.96Z" fill="#C7C9CB"/>
<path d="M206.22 186.96H200.94V244.18H206.22V186.96Z" fill="#C7C9CB"/>
<path d="M131.26 186.96H108.05V244.18H131.26V186.96Z" fill="#203E77"/>
<path d="M108.05 242.59V244.18H131.26V242.59C131.26 239.513 130.038 236.563 127.862 234.388C125.687 232.212 122.736 230.99 119.66 230.99V230.99C118.136 230.989 116.626 231.288 115.218 231.87C113.809 232.452 112.529 233.307 111.451 234.384C110.373 235.461 109.518 236.741 108.934 238.149C108.35 239.557 108.05 241.066 108.05 242.59V242.59Z" fill="#262626"/>
<path d="M138.74 242.59V244.18H162V242.59C161.999 241.062 161.696 239.55 161.108 238.14C160.521 236.73 159.661 235.45 158.578 234.373C157.494 233.296 156.209 232.444 154.795 231.865C153.382 231.286 151.868 230.992 150.34 231V231C147.265 231 144.316 232.221 142.141 234.394C139.966 236.567 138.743 239.515 138.74 242.59V242.59Z" fill="#262626"/>
</svg>
