<svg width="270" height="270" viewBox="0 0 270 270" fill="none" xmlns="http://www.w3.org/2000/svg">
<path d="M50.26 258.92C45.3759 258.925 40.5448 257.909 36.0773 255.935C31.6098 253.961 27.6049 251.074 24.32 247.46C21.6567 244.545 19.2853 241.377 17.24 238C11.34 228.25 7.68999 216.12 11.67 205.44C13.37 200.88 16.34 196.91 18.45 192.53C25.85 177.22 22.09 159.18 22.72 142.18C23.3 126.43 28.15 110.36 38.82 98.76C49.49 87.16 66.55 80.84 81.64 85.41C88.96 87.64 95.95 92.27 103.56 91.41C109.82 90.72 115.1 86.41 119.03 81.41C122.96 76.41 126 71 130 66.16C134.619 60.766 140.507 56.606 147.134 54.0549C153.762 51.5038 160.919 50.6418 167.963 51.5465C175.006 52.4513 181.714 55.0943 187.481 59.2375C193.249 63.3807 197.894 68.8938 201 75.28C204.6 82.7 206 91.09 210.26 98.17C212.97 102.72 217.51 106.69 222.44 108.17C231.05 110.69 236.28 119.4 233.69 127.99C233.56 128.43 233.42 128.87 233.27 129.29C230.77 136.4 226.27 142.58 222.85 149.29C219.43 156 217.38 164 220 171.05C223.53 180.61 234.16 185.05 242.15 191.37C247.096 195.321 251.207 200.218 254.242 205.773C257.277 211.329 259.177 217.433 259.83 223.73C259.83 223.86 259.83 223.98 259.83 224.11C260.203 228.548 259.649 233.015 258.203 237.227C256.758 241.439 254.452 245.305 251.432 248.578C248.413 251.852 244.745 254.462 240.663 256.242C236.581 258.022 232.173 258.934 227.72 258.92H50.26Z" fill="#E7EFF8"/>
<path opacity="0.5" d="M170.13 236.09L150.2 246.21C149.913 246.37 149.589 246.454 149.26 246.454C148.931 246.454 148.607 246.37 148.32 246.21L79.18 205.45C78.8627 205.26 78.6041 204.986 78.433 204.659C78.262 204.331 78.1851 203.962 78.211 203.593C78.2369 203.224 78.3646 202.87 78.5798 202.569C78.7949 202.269 79.0893 202.033 79.43 201.89L96.69 193.22C96.9718 193.076 97.2836 193.001 97.6 193.001C97.9164 193.001 98.2283 193.076 98.51 193.22L170.31 232.48C170.644 232.659 170.92 232.929 171.106 233.259C171.292 233.588 171.381 233.964 171.362 234.342C171.343 234.72 171.217 235.085 170.999 235.394C170.781 235.704 170.48 235.945 170.13 236.09Z" fill="#C4DAF1"/>
<path d="M88.36 255.6C104.36 255.6 117.33 248.065 117.33 238.77C117.33 229.475 104.36 221.94 88.36 221.94C72.3603 221.94 59.39 229.475 59.39 238.77C59.39 248.065 72.3603 255.6 88.36 255.6Z" fill="#C8CAE5"/>
<path d="M193.8 215.13C193.8 215.13 195.29 227.23 183.8 227.23L163.23 215.63L104.84 182.72V19.48C104.84 19.48 105.15 11.56 112.46 11.1C114.566 11.0009 116.655 11.53 118.46 12.62L180.97 48.62C186.09 52.2327 190.04 57.2668 192.33 63.1C193.586 66.4875 194.088 70.1085 193.8 73.71V215.13Z" fill="#202241"/>
<path d="M193.8 215.13C193.8 215.13 194.58 228.13 183.13 228.13L163.26 215.68L157.36 186.21V119.21L183.42 67.79L192.33 63.16C193.586 66.5476 194.088 70.1685 193.8 73.77V215.13Z" fill="#111324"/>
<path d="M187.84 217.79V77.43C189.06 61.56 175.15 52.54 175.15 52.54L111.22 15.69C100 13 99.58 23.6 99.58 23.6V185.6L175.46 228.37C176.631 229.056 177.956 229.435 179.313 229.472C180.67 229.509 182.014 229.202 183.22 228.58C188.79 225.57 187.84 217.79 187.84 217.79Z" fill="#F68E29"/>
<path d="M105.85 45.51L182.16 89.76C182.316 89.8477 182.446 89.9755 182.535 90.1303C182.625 90.2851 182.671 90.4611 182.67 90.64V210.07C182.677 210.251 182.634 210.429 182.547 210.588C182.46 210.746 182.332 210.878 182.176 210.969C182.02 211.06 181.842 211.108 181.662 211.106C181.481 211.105 181.304 211.054 181.15 210.96L103.9 167.27C103.739 167.182 103.606 167.052 103.514 166.893C103.422 166.734 103.376 166.553 103.38 166.37L104.31 46.37C104.307 46.1889 104.353 46.0104 104.443 45.8534C104.533 45.6963 104.664 45.5668 104.822 45.4785C104.98 45.3902 105.16 45.3465 105.341 45.352C105.522 45.3576 105.698 45.4122 105.85 45.51V45.51Z" fill="white"/>
<path d="M111.37 75.89V83.39C111.368 83.5652 111.413 83.7378 111.499 83.8905C111.585 84.0432 111.709 84.1706 111.86 84.26L174.69 121.85C174.844 121.949 175.022 122.004 175.205 122.008C175.387 122.013 175.568 121.968 175.727 121.877C175.886 121.786 176.017 121.654 176.105 121.494C176.194 121.334 176.237 121.153 176.23 120.97V112.66C176.234 112.48 176.19 112.303 176.102 112.146C176.014 111.99 175.886 111.86 175.73 111.77L112.9 75C112.746 74.9032 112.568 74.8505 112.385 74.8475C112.203 74.8446 112.024 74.8914 111.866 74.983C111.709 75.0746 111.579 75.2075 111.492 75.3674C111.404 75.5272 111.362 75.7079 111.37 75.89Z" fill="#E3E3E4"/>
<path d="M111.37 92.52V100C111.367 100.177 111.41 100.352 111.496 100.506C111.582 100.661 111.708 100.79 111.86 100.88L174.69 138.46C174.843 138.558 175.02 138.613 175.202 138.618C175.384 138.623 175.564 138.579 175.722 138.489C175.881 138.4 176.012 138.269 176.101 138.11C176.191 137.952 176.235 137.772 176.23 137.59V129.27C176.233 129.092 176.187 128.917 176.1 128.762C176.012 128.607 175.884 128.479 175.73 128.39L112.9 91.64C112.746 91.5438 112.569 91.4912 112.388 91.4878C112.207 91.4845 112.028 91.5304 111.871 91.6208C111.714 91.7112 111.584 91.8426 111.496 92.001C111.408 92.1594 111.364 92.3388 111.37 92.52Z" fill="#E3E3E4"/>
<path d="M111.37 109.16V116.66C111.368 116.835 111.413 117.008 111.499 117.161C111.585 117.313 111.709 117.441 111.86 117.53L174.69 155.12C174.844 155.219 175.022 155.274 175.205 155.278C175.388 155.283 175.568 155.238 175.727 155.147C175.886 155.056 176.017 154.924 176.105 154.764C176.194 154.604 176.237 154.423 176.23 154.24V145.93C176.233 145.752 176.187 145.577 176.1 145.422C176.012 145.267 175.884 145.139 175.73 145.05L112.9 108.28C112.746 108.184 112.569 108.131 112.388 108.128C112.207 108.124 112.028 108.17 111.871 108.261C111.714 108.351 111.584 108.483 111.496 108.641C111.408 108.799 111.364 108.979 111.37 109.16Z" fill="#E3E3E4"/>
<path d="M111.37 125.79V133.29C111.367 133.467 111.41 133.642 111.496 133.796C111.582 133.951 111.708 134.08 111.86 134.17L174.69 171.75C174.843 171.848 175.02 171.903 175.202 171.908C175.384 171.913 175.564 171.869 175.722 171.779C175.881 171.69 176.012 171.559 176.101 171.4C176.191 171.242 176.235 171.062 176.23 170.88V162.56C176.233 162.382 176.187 162.207 176.1 162.052C176.012 161.897 175.884 161.769 175.73 161.68L112.9 124.91C112.746 124.814 112.569 124.761 112.388 124.758C112.207 124.754 112.028 124.8 111.871 124.891C111.714 124.981 111.584 125.113 111.496 125.271C111.408 125.429 111.364 125.609 111.37 125.79Z" fill="#E3E3E4"/>
<path d="M111.37 142.26V149.76C111.367 149.937 111.41 150.112 111.496 150.266C111.582 150.421 111.708 150.55 111.86 150.64L174.69 188.22C174.844 188.319 175.022 188.374 175.205 188.378C175.388 188.383 175.568 188.338 175.727 188.247C175.886 188.156 176.017 188.024 176.105 187.864C176.194 187.704 176.237 187.523 176.23 187.34V179C176.233 178.822 176.187 178.647 176.1 178.492C176.012 178.337 175.884 178.209 175.73 178.12L112.9 141.38C112.746 141.284 112.569 141.231 112.388 141.228C112.207 141.224 112.028 141.27 111.871 141.361C111.714 141.451 111.584 141.583 111.496 141.741C111.408 141.899 111.364 142.079 111.37 142.26Z" fill="#E3E3E4"/>
<path d="M148.81 179.48V185.58C148.809 185.777 148.755 185.97 148.655 186.139C148.555 186.308 148.412 186.448 148.24 186.544C148.068 186.639 147.873 186.687 147.677 186.683C147.48 186.679 147.288 186.623 147.12 186.52L127.66 174.52C127.252 174.266 126.916 173.913 126.683 173.493C126.451 173.073 126.329 172.6 126.33 172.12V167.59C126.322 167.391 126.369 167.194 126.463 167.019C126.558 166.844 126.698 166.698 126.869 166.596C127.04 166.493 127.235 166.439 127.434 166.438C127.633 166.437 127.828 166.489 128 166.59L148.26 178.5C148.431 178.599 148.573 178.742 148.67 178.914C148.766 179.087 148.815 179.282 148.81 179.48V179.48Z" fill="#B45927"/>
<path d="M150.17 82.1401H150.09C145.43 83.2401 139.23 79.3301 135.09 73.0301C134.339 71.8926 133.671 70.7029 133.09 69.4701C129.15 61.1201 130.41 53.2401 135.92 51.8701C141.43 50.5001 149.09 56.1701 153.03 64.5201C156.97 72.8701 155.67 80.7701 150.17 82.1401Z" fill="#D26D28"/>
<path d="M135.35 200.47C133.35 200.94 130.64 199.25 128.84 196.52C128.515 196.027 128.224 195.513 127.97 194.98C126.26 191.36 126.81 187.98 129.19 187.35C131.57 186.72 134.9 189.22 136.61 192.83C138.32 196.44 137.74 199.88 135.35 200.47Z" fill="#D26D28"/>
<path d="M146.755 68.9726C148.589 67.8443 148.527 64.4088 146.614 61.2991C144.702 58.1895 141.664 56.5833 139.83 57.7116C137.995 58.8399 138.058 62.2754 139.97 65.385C141.882 68.4947 144.92 70.1009 146.755 68.9726Z" fill="white"/>
<path d="M150.09 82.16C145.43 83.26 139.23 79.35 135.09 73.05C135.181 72.2238 135.514 71.4429 136.048 70.8058C136.582 70.1687 137.292 69.7039 138.09 69.47C141.51 68.61 146.28 72.14 148.73 77.32C149.465 78.8405 149.926 80.4791 150.09 82.16Z" fill="white"/>
<path d="M191.92 95.95V123.8L190.19 124.51V96.54L191.92 95.95Z" fill="white"/>
<path d="M191.92 129.38V157.23L190.19 157.94V129.97L191.92 129.38Z" fill="white"/>
<path d="M88.25 104C88.25 104 92.25 103.82 92.25 106.61C92.25 106.61 89.7 108.98 83.36 108.69C81.8168 108.629 80.2936 108.319 78.85 107.77C77 107 74.74 105.56 74.05 103L76.2 102L82.2 100.52L88.25 104Z" fill="#96D3DC"/>
<path d="M77.2 95.37L76.54 101.76C76.54 101.76 85 102.93 88.25 104V96.69L77.2 95.37Z" fill="#EF8764"/>
<path d="M96.57 79.27C96.57 79.27 99.71 104.97 88.62 99.83L79.51 94.37L81.75 77.82L88.25 73.35L96.57 79.27Z" fill="#F79B74"/>
<path d="M87 89.59C88.0224 88.452 88.9301 87.216 89.71 85.9C90.8788 83.7642 92.6074 81.9873 94.71 80.76C96.12 79.98 97.39 78.83 97.39 77.23C97.39 77.23 95.89 64.29 78.71 65.32C76.0572 65.4354 73.5002 66.3447 71.37 67.93C68.76 69.93 66.16 73.56 66.16 79.99C66.16 79.99 67.95 93.33 76.9 98.05C76.9 98.05 84.09 100.23 86.17 94.14L84.5 92.74C83.8982 92.2391 83.4089 91.6167 83.0642 90.9136C82.7196 90.2105 82.5273 89.4425 82.5 88.66C82.5 87.23 82.99 85.8 85.23 85.85C85.16 85.85 86.68 86.59 87 89.59Z" fill="#823A34"/>
<path d="M145.37 112.12C145.37 112.12 151.9 119.12 139.09 124.12C139.09 124.12 130.51 130.65 128.2 131.55C128.2 131.55 129.2 135.9 122.2 136.41C122.2 136.41 113.37 139.41 111.06 138.85L101.72 134.36L100.72 161.51L99 162.68C94.0917 165.847 88.2008 167.124 82.4219 166.274C76.6429 165.424 71.369 162.505 67.58 158.06L66.15 137.48C66.15 137.48 57.15 135.94 59.95 125.95C59.95 125.95 64.31 99.57 76.22 103.28L92.3 106.57L100.81 111.57L112.81 126.68L117.16 125.4C117.16 125.4 123.31 121.94 124.46 122.84C124.46 122.84 132.02 121.68 135.09 119.76L138.68 116.61C138.68 116.61 143.16 108.11 146.62 107.85C146.65 107.89 149.21 108.53 145.37 112.12Z" fill="#88CED7"/>
<path d="M146.64 107.89C143.19 108.15 138.7 116.65 138.7 116.65L136.05 119L139.05 124.18C151.85 119.18 145.32 112.18 145.32 112.18C149.2 108.54 146.64 107.89 146.64 107.89Z" fill="#F79B74"/>
<path d="M98 239.05L89.29 246.73L84 182.31L81.83 234.31L84.44 233.31C84.6828 233.217 84.9443 233.182 85.2031 233.209C85.4619 233.236 85.7106 233.324 85.9291 233.465C86.1475 233.606 86.3294 233.797 86.4599 234.022C86.5904 234.247 86.6658 234.5 86.68 234.76C86.7214 235.306 86.6271 235.854 86.4055 236.355C86.1839 236.855 85.8419 237.294 85.41 237.63C85.41 237.63 80.89 244.46 75.27 243.84C74.7668 243.767 74.3046 243.522 73.9619 243.146C73.6191 242.77 73.417 242.288 73.39 241.78L67.55 158.05C71.3365 162.509 76.6159 165.437 82.4029 166.289C88.1899 167.141 94.0892 165.858 99 162.68L100.74 161.56L98 239.05Z" fill="#203E77"/>
<path d="M104.94 237.55C102.03 237.22 97.94 239.05 97.94 239.05L89.23 246.73C93.46 251.47 97.05 247.88 97.05 247.88C100.556 246.138 103.654 243.674 106.14 240.65C106.364 240.392 106.514 240.078 106.573 239.741C106.631 239.404 106.597 239.057 106.474 238.739C106.35 238.42 106.142 238.141 105.872 237.931C105.602 237.722 105.28 237.59 104.94 237.55V237.55Z" fill="#1C333F"/>
<path d="M118 101.69C117.586 101.692 117.18 101.579 116.827 101.364C116.474 101.148 116.187 100.839 116 100.47C115.898 100.32 115.808 100.163 115.73 100C115.21 98.89 115.37 97.8301 116.11 97.6501C116.85 97.4701 117.87 98.23 118.39 99.34C118.91 100.45 118.71 101.5 118 101.69Z" fill="#202241"/>
<path d="M123.22 104.94C122.6 105.09 121.77 104.57 121.22 103.73C121.12 103.579 121.03 103.422 120.95 103.26C120.42 102.14 120.59 101.09 121.33 100.91C122.07 100.73 123.08 101.48 123.61 102.6C124.14 103.72 124 104.76 123.22 104.94Z" fill="#202241"/>
<path d="M128.47 107.87C127.85 108.02 127.02 107.5 126.47 106.66C126.368 106.507 126.278 106.346 126.2 106.18C125.67 105.07 125.84 104.02 126.57 103.83C127.3 103.64 128.33 104.41 128.86 105.52C129.39 106.63 129.2 107.69 128.47 107.87Z" fill="#202241"/>
<path d="M133.72 110.54C133.307 110.547 132.9 110.437 132.546 110.223C132.192 110.009 131.906 109.699 131.72 109.33C131.62 109.179 131.53 109.022 131.45 108.86C130.93 107.74 131.1 106.69 131.83 106.51C132.56 106.33 133.59 107.08 134.11 108.2C134.63 109.32 134.45 110.36 133.72 110.54Z" fill="#202241"/>
</svg>
